#!OML:ASF F:\VICON\USERDATA\INSTALL\rory3\rory3.ASF
:FULLY-SPECIFIED
:DEGREES
377
root 0.347619 17.7862 5.97781 1.73323 -0.710209 0.545323
lowerback 6.12282 -0.304256 -1.52859
upperback -1.95806 -0.393606 2.67296
thorax -5.44798 -0.0936124 3.69005
lowerneck -17.98 -4.33829 -10.108
upperneck 24.8667 -4.73794 5.87542
head 11.4774 -2.37975 3.14541
rclavicle -6.37353e-015 -7.15625e-015
rhumerus -36.4628 -13.8424 -76.0524
rradius 37.3271
rwrist -4.08758
rhand -22.2581 21.0827
rfingers 7.12502
rthumb 4.15956 -8.85649
lclavicle -6.37353e-015 -7.15625e-015
lhumerus -40.1081 9.53799 75.8391
lradius 37.3034
lwrist -0.801965
lhand -18.5918 24.567
lfingers 7.12502
lthumb 7.69917 54.4068
rfemur -6.65295 5.21672 21.9937
rtibia 20.4407
rfoot -9.18989 -7.39726
rtoes 6.27272
lfemur -9.51882 -3.32939 -21.3799
ltibia 19.6126
lfoot -8.3265 4.06504
ltoes 3.6654
378
root 0.342712 17.7857 5.99975 1.78054 -0.676228 0.703673
lowerback 5.91106 -0.316817 -1.6829
upperback -1.90653 -0.424733 2.6378
thorax -5.27025 -0.108023 3.73962
lowerneck -18.1492 -4.34152 -10.1451
upperneck 24.8947 -4.73635 5.95552
head 11.5243 -2.37014 3.18106
rclavicle 8.87077e-015 5.56597e-015
rhumerus -36.316 -13.2852 -76.3347
rradius 37.5663
rwrist -3.25648
rhand -22.0872 20.4909
rfingers 7.12502
rthumb 4.32453 -9.44496
lclavicle 8.87077e-015 5.56597e-015
lhumerus -39.9284 9.25291 75.8484
lradius 37.467
lwrist -1.11666
lhand -19.013 23.1078
lfingers 7.12502
lthumb 7.29263 52.9621
rfemur -6.6263 5.11127 21.8375
rtibia 20.4826
rfoot -9.34274 -7.37242
rtoes 5.94156
lfemur -9.45372 -3.52006 -21.5524
ltibia 19.5531
lfoot -8.27379 4.2216
ltoes 3.50338
379
root 0.338666 17.7836 6.02289 1.75344 -0.559442 0.979336
lowerback 5.85755 -0.353612 -1.91045
upperback -1.89108 -0.496108 2.55447
thorax -5.21715 -0.138475 3.7873
lowerneck -18.2409 -4.35772 -10.1407
upperneck 24.9502 -4.75336 5.95623
head 11.5652 -2.37648 3.17808
rclavicle 1.55922e-015 1.19271e-014
rhumerus -36.1887 -12.7017 -76.6199
rradius 37.735
rwrist -2.60816
rhand -21.8503 19.9739
rfingers 7.12502
rthumb 4.55331 -9.9572
lclavicle 1.55922e-015 1.19271e-014
lhumerus -39.7281 9.02379 75.855
lradius 37.5515
lwrist -1.39899
lhand -18.8982 22.279
lfingers 7.12502
lthumb 7.40339 52.1295
rfemur -6.47747 4.88582 21.5494
rtibia 20.4692
rfoot -9.47457 -7.29658
rtoes 5.56183
lfemur -9.32549 -3.56779 -21.8683
ltibia 19.5174
lfoot -8.34813 4.18401
ltoes 3.27172
380
root 0.333358 17.7819 6.04751 1.63405 -0.635233 0.974641
lowerback 6.01133 -0.341645 -1.89246
upperback -1.97907 -0.478705 2.55814
thorax -5.39859 -0.126024 3.78319
lowerneck -17.9975 -4.29159 -10.1276
upperneck 25.0096 -4.68642 5.93487
head 11.5322 -2.35264 3.18175
rclavicle 1.74682e-014 1.11319e-014
rhumerus -36.3794 -12.0772 -76.8233
rradius 37.7855
rwrist -1.9502
rhand -21.6254 20.7408
rfingers 7.12502
rthumb 4.77046 -9.18548
lclavicle 1.74682e-014 1.11319e-014
lhumerus -39.9961 8.76514 75.8395
lradius 37.8829
lwrist -1.42173
lhand -18.1079 23.8059
lfingers 7.12502
lthumb 8.16618 53.6281
rfemur -6.24041 5.02235 21.5981
rtibia 20.4205
rfoot -9.47171 -7.35676
rtoes 5.85582
lfemur -9.08544 -3.63414 -21.8725
ltibia 19.5164
lfoot -8.50589 4.40582
ltoes 3.14567
381
root 0.325937 17.7812 6.07384 1.53178 -0.824799 0.781317
lowerback 6.11446 -0.291064 -1.73836
upperback -2.05043 -0.39445 2.62981
thorax -5.5395 -0.0849269 3.76509
lowerneck -17.8751 -4.19694 -10.0709
upperneck 25.0956 -4.584 5.92874
head 11.5288 -2.30497 3.18888
rclavicle -2.26428e-015 -1.11319e-014
rhumerus -36.4355 -11.5703 -76.9802
rradius 37.6537
rwrist -0.817736
rhand -21.6409 21.1479
rfingers 7.12502
rthumb 4.75552 -8.77877
lclavicle -2.26428e-015 -1.11319e-014
lhumerus -40.3215 8.56811 75.7974
lradius 38.17
lwrist -1.41957
lhand -17.4474 25.0185
lfingers 7.12502
lthumb 8.80363 54.8149
rfemur -5.99864 5.32502 21.8681
rtibia 20.3227
rfoot -9.45834 -7.49538
rtoes 6.30908
lfemur -8.86701 -3.80355 -21.6654
ltibia 19.5871
lfoot -8.67385 4.87037
ltoes 3.67143
382
root 0.315305 17.7802 6.09397 1.47914 -0.993309 0.636863
lowerback 6.177 -0.234519 -1.68452
upperback -2.09189 -0.310121 2.70422
thorax -5.62548 -0.0416733 3.8054
lowerneck -17.7039 -4.17666 -9.91658
upperneck 24.9984 -4.56275 5.73766
head 11.4469 -2.30585 3.09406
rclavicle -7.96168e-015 -7.95139e-015
rhumerus -36.3864 -11.3098 -77.0388
rradius 37.5676
rwrist 0.465588
rhand -21.2582 21.0601
rfingers 7.12502
rthumb 5.125 -8.85797
lclavicle -7.96168e-015 -7.95139e-015
lhumerus -40.5022 8.36921 75.7838
lradius 38.4095
lwrist -1.53506
lhand -16.981 24.6366
lfingers 7.12502
lthumb 9.25363 54.4135
rfemur -5.81066 5.69512 22.1065
rtibia 20.1999
rfoot -9.42229 -7.72552
rtoes 6.25706
lfemur -8.76244 -3.93713 -21.4927
ltibia 19.6781
lfoot -8.83019 5.25266
ltoes 4.00762
383
root 0.307971 17.7777 6.11208 1.46537 -1.04602 0.615469
lowerback 6.23426 -0.246549 -1.67792
upperback -2.16975 -0.323926 2.72168
thorax -5.73906 -0.0454965 3.82369
lowerneck -17.4349 -4.16567 -9.81376
upperneck 24.869 -4.55259 5.56128
head 11.3367 -2.31603 3.01243
rclavicle -1.39864e-014 2.38542e-015
rhumerus -36.4571 -11.0758 -77.1138
rradius 37.5893
rwrist 1.22074
rhand -20.5456 21.3702
rfingers 7.12502
rthumb 5.81308 -8.5301
lclavicle -1.39864e-014 2.38542e-015
lhumerus -40.7364 8.28021 75.6887
lradius 38.5622
lwrist -1.67835
lhand -17.4154 21.3434
lfingers 7.12502
lthumb 8.83453 51.1385
rfemur -5.70109 5.82192 22.1804
rtibia 20.0871
rfoot -9.34421 -7.81933
rtoes 5.96623
lfemur -8.72285 -3.97509 -21.4679
ltibia 19.7734
lfoot -8.98664 5.42112
ltoes 3.5215
384
root 0.30581 17.7784 6.13091 1.50273 -0.970398 0.801619
lowerback 6.17682 -0.316705 -1.80799
upperback -2.21732 -0.430836 2.67005
thorax -5.74747 -0.0939174 3.85467
lowerneck -17.4429 -4.13065 -9.80771
upperneck 24.9439 -4.49322 5.51364
head 11.3601 -2.29548 3.00401
rclavicle -2.41026e-015 -2.62396e-014
rhumerus -36.4558 -10.7688 -77.2753
rradius 37.6983
rwrist 1.50932
rhand -20.1792 21.3108
rfingers 7.12502
rthumb 6.16679 -8.57944
lclavicle -2.41026e-015 -2.62396e-014
lhumerus -40.9056 8.21138 75.6558
lradius 38.7056
lwrist -1.6558
lhand -17.1267 23.8951
lfingers 7.12502
lthumb 9.11309 53.6782
rfemur -5.64344 5.70104 21.9792
rtibia 20.0016
rfoot -9.34014 -7.75474
rtoes 5.85704
lfemur -8.75664 -3.95286 -21.6983
ltibia 19.8655
lfoot -9.05168 5.43569
ltoes 2.74942
385
root 0.301565 17.7799 6.14426 1.57742 -0.88713 0.739227
lowerback 6.03099 -0.351404 -1.73749
upperback -2.17736 -0.469002 2.7083
thorax -5.61917 -0.117398 3.85582
lowerneck -17.652 -4.15324 -9.83279
upperneck 25.0517 -4.48676 5.47008
head 11.4417 -2.2985 2.99285
rclavicle 4.36084e-015 -3.18055e-015
rhumerus -36.22 -10.6568 -77.3474
rradius 37.6761
rwrist 1.70849
rhand -19.9591 21.0717
rfingers 7.12502
rthumb 6.37932 -8.81226
lclavicle 4.36084e-015 -3.18055e-015
lhumerus -40.8077 7.92314 75.8415
lradius 38.9154
lwrist -1.4877
lhand -17.0275 25.0958
lfingers 7.12502
lthumb 9.2088 54.8747
rfemur -5.63301 5.68667 22.0721
rtibia 19.9574
rfoot -9.38188 -7.82816
rtoes 6.0919
lfemur -8.84281 -3.90821 -21.6258
ltibia 19.9079
lfoot -9.05005 5.37847
ltoes 2.18138
386
root 0.296286 17.7801 6.16112 1.58923 -0.833392 0.645839
lowerback 5.85898 -0.374355 -1.67937
upperback -2.10987 -0.492057 2.76651
thorax -5.44819 -0.1336 3.88227
lowerneck -17.8752 -4.14925 -9.88377
upperneck 25.249 -4.47202 5.55201
head 11.5631 -2.28568 3.03599
rclavicle 1.73548e-015 -1.35174e-014
rhumerus -36.0299 -10.5661 -77.3775
rradius 37.582
rwrist 1.75855
rhand -19.6926 21.0253
rfingers 7.12502
rthumb 6.63657 -8.85072
lclavicle 1.73548e-015 -1.35174e-014
lhumerus -40.6189 7.78706 75.9602
lradius 38.9343
lwrist -1.54325
lhand -16.9827 24.6923
lfingers 7.12502
lthumb 9.25205 54.4693
rfemur -5.54693 5.67724 22.2082
rtibia 19.9264
rfoot -9.44122 -7.90484
rtoes 5.74634
lfemur -8.79731 -3.94553 -21.5061
ltibia 19.8916
lfoot -9.07496 5.37837
ltoes 2.25464
387
root 0.294343 17.7801 6.18352 1.54576 -0.794579 0.732855
lowerback 5.67645 -0.414562 -1.75695
upperback -2.0403 -0.552195 2.76641
thorax -5.26572 -0.16485 3.92777
lowerneck -17.9809 -4.07618 -9.90842
upperneck 25.3373 -4.37574 5.63579
head 11.6113 -2.23376 3.08778
rclavicle -2.22623e-015 -6.36111e-015
rhumerus -36.037 -10.4458 -77.4218
rradius 37.6888
rwrist 1.81694
rhand -19.5808 20.9039
rfingers 7.12502
rthumb 6.74453 -8.96868
lclavicle -2.22623e-015 -6.36111e-015
lhumerus -40.5829 7.75564 76.0298
lradius 39.0094
lwrist -1.60239
lhand -16.8738 24.2466
lfingers 7.12502
lthumb 9.35712 54.019
rfemur -5.38177 5.59278 22.1255
rtibia 19.877
rfoot -9.5545 -7.89681
rtoes 5.47502
lfemur -8.66575 -3.97866 -21.6084
ltibia 19.9033
lfoot -9.12431 5.35771
ltoes 2.5346
388
root 0.291745 17.7788 6.20658 1.51918 -0.817159 0.824753
lowerback 5.51027 -0.412791 -1.80274
upperback -1.99608 -0.554784 2.73213
thorax -5.12434 -0.168319 3.91419
lowerneck -17.8289 -4.04746 -9.83605
upperneck 25.2198 -4.34802 5.56285
head 11.5298 -2.2241 3.05158
rclavicle -1.34401e-014 1.66979e-014
rhumerus -36.1009 -10.4612 -77.4484
rradius 37.8074
rwrist 1.79569
rhand -19.4696 20.9206
rfingers 7.12502
rthumb 6.85182 -8.94849
lclavicle -1.34401e-014 1.66979e-014
lhumerus -40.6672 7.54273 76.1298
lradius 39.1182
lwrist -1.54741
lhand -16.9422 24.0546
lfingers 7.12502
lthumb 9.29109 53.8299
rfemur -5.24987 5.6318 22.0385
rtibia 19.8586
rfoot -9.58794 -7.91567
rtoes 5.27043
lfemur -8.53297 -4.02909 -21.7158
ltibia 19.8878
lfoot -9.13917 5.46356
ltoes 2.52254
